<?xml version="1.0" encoding="UTF-8"?>
<svg width="1200pt" height="1200pt" version="1.1" viewBox="0 0 1200 1200" xmlns="http://www.w3.org/2000/svg">
 <path d="m993.75 874.88-188.62-189.19c-5.3438-5.1328-12.465-8-19.875-8s-14.531 2.8672-19.875 8l-20.062 19.875-93.75-93.75 78.75-78.75c4.8906 7.1406 12.648 11.805 21.25 12.777s17.199-1.8438 23.562-7.7148l61.5-61.688c5.3125-5.25 8.3047-12.406 8.3047-19.875s-2.9922-14.625-8.3047-19.875l-234.56-234.75c-5.2969-5.2227-12.438-8.1484-19.875-8.1484s-14.578 2.9258-19.875 8.1484l-61.688 61.688c-5.875 6.4102-8.6406 15.078-7.5547 23.707 1.082 8.6289 5.9023 16.348 13.18 21.105l-197.81 197.81c-4.9688-7.0391-12.711-11.617-21.27-12.582-8.5625-0.96875-17.129 1.7695-23.543 7.5195l-61.688 61.312c-5.2227 5.2969-8.1484 12.438-8.1484 19.875s2.9258 14.578 8.1484 19.875l234.94 234.56c5.2734 5.2656 12.422 8.2266 19.875 8.2266s14.602-2.9609 19.875-8.2266l61.688-61.5c5.6055-6.3359 8.2578-14.754 7.293-23.16-0.96875-8.4062-5.457-16.004-12.355-20.902l78.75-78.75 93.75 93.75-19.875 20.062c-5.3125 5.25-8.3047 12.406-8.3047 19.875s2.9922 14.625 8.3047 19.875l189 187.69c5.2969 5.2227 12.438 8.1484 19.875 8.1484s14.578-2.9258 19.875-8.1484l79.125-79.125c5.3125-5.25 8.3047-12.406 8.3047-19.875s-2.9922-14.625-8.3047-19.875zm-537-97.688-194.25-195 21.75-21.75c4.8828 7.168 12.66 11.836 21.281 12.773 8.6211 0.94141 17.223-1.9492 23.531-7.8984l236.25-237c5.9492-6.3086 8.8398-14.91 7.8984-23.531-0.9375-8.6211-5.6055-16.398-12.773-21.281l21.75-21 195 195-21.75 21.75c-4.8828-7.168-12.66-11.836-21.281-12.773-8.6211-0.94141-17.223 1.9492-23.531 7.8984l-118.31 118.5s-118.31 118.12-118.69 118.5c-5.9492 6.3086-8.8398 14.91-7.8984 23.531 0.9375 8.6211 5.6055 16.398 12.773 21.281zm438 157.5-150-150 39.938-39.938 150 150z" fill="#d2d2d2"/>
</svg>
