<?xml version="1.0" encoding="UTF-8"?>
<svg width="1200pt" height="1200pt" version="1.1" viewBox="0 0 1200 1200" xmlns="http://www.w3.org/2000/svg">
 <path d="m1017 214.03-143.58-143.58c-21.047-21.188-49.688-33.047-79.547-32.953h-568.92c-41.391 0.046875-74.953 33.609-75 75v975c0.046875 41.391 33.609 74.953 75 75h750c41.391-0.046875 74.953-33.609 75-75v-793.92c0.09375-29.859-11.766-58.5-32.953-79.547zm-792.05 873.47v-975h525v150c0 19.875 7.9219 38.953 21.984 53.016s33.141 21.984 53.016 21.984h150l0.046875 750zm112.5-600c0-20.719 16.781-37.5 37.5-37.5h450c20.719 0 37.5 16.781 37.5 37.5s-16.781 37.5-37.5 37.5h-450c-20.719 0-37.5-16.781-37.5-37.5zm525 225c0 9.9375-3.9375 19.5-10.969 26.531s-16.594 10.969-26.531 10.969h-450c-20.719 0-37.5-16.781-37.5-37.5s16.781-37.5 37.5-37.5h450c9.9375 0 19.5 3.9375 26.531 10.969s10.969 16.594 10.969 26.531zm-225 225c0 9.9375-3.9375 19.5-10.969 26.531s-16.594 10.969-26.531 10.969h-225c-20.719 0-37.5-16.781-37.5-37.5s16.781-37.5 37.5-37.5h225c9.9375 0 19.5 3.9375 26.531 10.969s10.969 16.594 10.969 26.531z" fill="#ababab"/>
</svg>
