<svg xmlns="http://www.w3.org/2000/svg" version="1.1" xmlns:xlink="http://www.w3.org/1999/xlink" xmlns:svgjs="http://svgjs.dev/svgjs" viewBox="0 0 800 800"><g fill="none" stroke-width="3" stroke="hsl(105, 95%, 35%)" stroke-linecap="round"><line x1="119.5" y1="400" x2="680.5" y2="400" transform="rotate(0, 400, 400)" opacity="0.90"></line><line x1="161.5" y1="400" x2="638.5" y2="400" transform="rotate(4, 400, 400)" opacity="0.10"></line><line x1="542" y1="400" x2="258" y2="400" transform="rotate(8, 400, 400)" opacity="0.30"></line><line x1="574" y1="400" x2="226" y2="400" transform="rotate(12, 400, 400)" opacity="0.31"></line><line x1="727.5" y1="400" x2="72.5" y2="400" transform="rotate(16, 400, 400)" opacity="0.52"></line><line x1="203" y1="400" x2="597" y2="400" transform="rotate(20, 400, 400)" opacity="0.83"></line><line x1="75.5" y1="400" x2="724.5" y2="400" transform="rotate(24, 400, 400)" opacity="0.27"></line><line x1="321" y1="400" x2="479" y2="400" transform="rotate(28, 400, 400)" opacity="0.07"></line><line x1="468.5" y1="400" x2="331.5" y2="400" transform="rotate(32, 400, 400)" opacity="0.84"></line><line x1="236" y1="400" x2="564" y2="400" transform="rotate(36, 400, 400)" opacity="0.27"></line><line x1="588" y1="400" x2="212" y2="400" transform="rotate(40, 400, 400)" opacity="0.23"></line><line x1="459.5" y1="400" x2="340.5" y2="400" transform="rotate(44, 400, 400)" opacity="0.32"></line><line x1="633" y1="400" x2="167" y2="400" transform="rotate(48, 400, 400)" opacity="0.88"></line><line x1="445.5" y1="400" x2="354.5" y2="400" transform="rotate(52, 400, 400)" opacity="0.36"></line><line x1="639.5" y1="400" x2="160.5" y2="400" transform="rotate(56, 400, 400)" opacity="0.85"></line><line x1="422" y1="400" x2="378" y2="400" transform="rotate(60, 400, 400)" opacity="0.37"></line><line x1="546" y1="400" x2="254" y2="400" transform="rotate(64, 400, 400)" opacity="0.76"></line><line x1="255" y1="400" x2="545" y2="400" transform="rotate(68, 400, 400)" opacity="0.56"></line><line x1="713" y1="400" x2="87" y2="400" transform="rotate(72, 400, 400)" opacity="0.85"></line><line x1="402.5" y1="400" x2="397.5" y2="400" transform="rotate(76, 400, 400)" opacity="0.23"></line><line x1="29" y1="400" x2="771" y2="400" transform="rotate(80, 400, 400)" opacity="0.36"></line><line x1="642.5" y1="400" x2="157.5" y2="400" transform="rotate(84, 400, 400)" opacity="0.73"></line><line x1="633" y1="400" x2="167" y2="400" transform="rotate(88, 400, 400)" opacity="0.56"></line><line x1="561" y1="400" x2="239" y2="400" transform="rotate(92, 400, 400)" opacity="0.20"></line><line x1="396" y1="400" x2="404" y2="400" transform="rotate(96, 400, 400)" opacity="0.63"></line><line x1="601.5" y1="400" x2="198.5" y2="400" transform="rotate(100, 400, 400)" opacity="0.54"></line><line x1="426" y1="400" x2="374" y2="400" transform="rotate(104, 400, 400)" opacity="0.38"></line><line x1="514.5" y1="400" x2="285.5" y2="400" transform="rotate(108, 400, 400)" opacity="0.18"></line><line x1="491.5" y1="400" x2="308.5" y2="400" transform="rotate(112, 400, 400)" opacity="0.86"></line><line x1="547.5" y1="400" x2="252.5" y2="400" transform="rotate(116, 400, 400)" opacity="0.54"></line><line x1="416.5" y1="400" x2="383.5" y2="400" transform="rotate(120, 400, 400)" opacity="0.39"></line><line x1="712" y1="400" x2="88" y2="400" transform="rotate(124, 400, 400)" opacity="0.96"></line><line x1="314.5" y1="400" x2="485.5" y2="400" transform="rotate(128, 400, 400)" opacity="0.37"></line><line x1="78.5" y1="400" x2="721.5" y2="400" transform="rotate(132, 400, 400)" opacity="0.32"></line><line x1="87.5" y1="400" x2="712.5" y2="400" transform="rotate(136, 400, 400)" opacity="0.76"></line><line x1="585.5" y1="400" x2="214.5" y2="400" transform="rotate(140, 400, 400)" opacity="0.07"></line><line x1="478.5" y1="400" x2="321.5" y2="400" transform="rotate(144, 400, 400)" opacity="0.19"></line><line x1="531" y1="400" x2="269" y2="400" transform="rotate(148, 400, 400)" opacity="0.24"></line><line x1="82.5" y1="400" x2="717.5" y2="400" transform="rotate(152, 400, 400)" opacity="0.71"></line><line x1="667.5" y1="400" x2="132.5" y2="400" transform="rotate(156, 400, 400)" opacity="0.86"></line><line x1="597.5" y1="400" x2="202.5" y2="400" transform="rotate(160, 400, 400)" opacity="0.90"></line><line x1="93" y1="400" x2="707" y2="400" transform="rotate(164, 400, 400)" opacity="0.13"></line><line x1="48" y1="400" x2="752" y2="400" transform="rotate(168, 400, 400)" opacity="0.71"></line><line x1="224.5" y1="400" x2="575.5" y2="400" transform="rotate(172, 400, 400)" opacity="0.87"></line><line x1="730" y1="400" x2="70" y2="400" transform="rotate(176, 400, 400)" opacity="0.74"></line><line x1="439" y1="400" x2="361" y2="400" transform="rotate(180, 400, 400)" opacity="0.30"></line><line x1="473.5" y1="400" x2="326.5" y2="400" transform="rotate(184, 400, 400)" opacity="0.24"></line><line x1="213.5" y1="400" x2="586.5" y2="400" transform="rotate(188, 400, 400)" opacity="0.09"></line><line x1="655" y1="400" x2="145" y2="400" transform="rotate(192, 400, 400)" opacity="0.37"></line><line x1="139" y1="400" x2="661" y2="400" transform="rotate(196, 400, 400)" opacity="0.08"></line><line x1="136.5" y1="400" x2="663.5" y2="400" transform="rotate(200, 400, 400)" opacity="0.71"></line><line x1="595.5" y1="400" x2="204.5" y2="400" transform="rotate(204, 400, 400)" opacity="0.76"></line><line x1="172" y1="400" x2="628" y2="400" transform="rotate(208, 400, 400)" opacity="0.14"></line><line x1="379.5" y1="400" x2="420.5" y2="400" transform="rotate(212, 400, 400)" opacity="0.25"></line><line x1="138.5" y1="400" x2="661.5" y2="400" transform="rotate(216, 400, 400)" opacity="0.36"></line><line x1="229" y1="400" x2="571" y2="400" transform="rotate(220, 400, 400)" opacity="0.67"></line><line x1="65" y1="400" x2="735" y2="400" transform="rotate(224, 400, 400)" opacity="0.12"></line><line x1="244.5" y1="400" x2="555.5" y2="400" transform="rotate(228, 400, 400)" opacity="0.59"></line><line x1="351" y1="400" x2="449" y2="400" transform="rotate(232, 400, 400)" opacity="0.14"></line><line x1="517.5" y1="400" x2="282.5" y2="400" transform="rotate(236, 400, 400)" opacity="0.86"></line><line x1="113.5" y1="400" x2="686.5" y2="400" transform="rotate(240, 400, 400)" opacity="0.36"></line><line x1="90.5" y1="400" x2="709.5" y2="400" transform="rotate(244, 400, 400)" opacity="0.91"></line><line x1="454.5" y1="400" x2="345.5" y2="400" transform="rotate(248, 400, 400)" opacity="0.08"></line><line x1="463.5" y1="400" x2="336.5" y2="400" transform="rotate(252, 400, 400)" opacity="0.32"></line><line x1="355" y1="400" x2="445" y2="400" transform="rotate(256, 400, 400)" opacity="0.72"></line><line x1="578" y1="400" x2="222" y2="400" transform="rotate(260, 400, 400)" opacity="0.25"></line><line x1="543.5" y1="400" x2="256.5" y2="400" transform="rotate(264, 400, 400)" opacity="0.93"></line><line x1="312" y1="400" x2="488" y2="400" transform="rotate(268, 400, 400)" opacity="0.35"></line><line x1="567" y1="400" x2="233" y2="400" transform="rotate(272, 400, 400)" opacity="0.45"></line><line x1="77.5" y1="400" x2="722.5" y2="400" transform="rotate(276, 400, 400)" opacity="0.83"></line><line x1="646.5" y1="400" x2="153.5" y2="400" transform="rotate(280, 400, 400)" opacity="0.47"></line><line x1="201.5" y1="400" x2="598.5" y2="400" transform="rotate(284, 400, 400)" opacity="0.36"></line><line x1="551.5" y1="400" x2="248.5" y2="400" transform="rotate(288, 400, 400)" opacity="0.65"></line><line x1="192.5" y1="400" x2="607.5" y2="400" transform="rotate(292, 400, 400)" opacity="0.70"></line><line x1="726.5" y1="400" x2="73.5" y2="400" transform="rotate(296, 400, 400)" opacity="0.21"></line><line x1="46" y1="400" x2="754" y2="400" transform="rotate(300, 400, 400)" opacity="0.33"></line><line x1="364" y1="400" x2="436" y2="400" transform="rotate(304, 400, 400)" opacity="0.74"></line><line x1="644" y1="400" x2="156" y2="400" transform="rotate(308, 400, 400)" opacity="0.82"></line><line x1="560" y1="400" x2="240" y2="400" transform="rotate(312, 400, 400)" opacity="0.14"></line><line x1="116.5" y1="400" x2="683.5" y2="400" transform="rotate(316, 400, 400)" opacity="0.68"></line><line x1="85.5" y1="400" x2="714.5" y2="400" transform="rotate(320, 400, 400)" opacity="0.16"></line><line x1="252.5" y1="400" x2="547.5" y2="400" transform="rotate(324, 400, 400)" opacity="0.52"></line><line x1="250.5" y1="400" x2="549.5" y2="400" transform="rotate(328, 400, 400)" opacity="0.82"></line><line x1="717" y1="400" x2="83" y2="400" transform="rotate(332, 400, 400)" opacity="0.24"></line><line x1="603" y1="400" x2="197" y2="400" transform="rotate(336, 400, 400)" opacity="0.82"></line><line x1="352.5" y1="400" x2="447.5" y2="400" transform="rotate(340, 400, 400)" opacity="0.15"></line><line x1="90.5" y1="400" x2="709.5" y2="400" transform="rotate(344, 400, 400)" opacity="0.91"></line><line x1="689.5" y1="400" x2="110.5" y2="400" transform="rotate(348, 400, 400)" opacity="0.14"></line></g></svg>